<svg xmlns="http://www.w3.org/2000/svg" width="160" height="52" viewBox="0 0 123 52" fill="none">
    <path fill-rule="evenodd" clip-rule="evenodd" d="M28.7464 40.7035C28.8925 40.7078 29.0392 40.71 29.1864 40.71C37.3676 40.71 43.9998 33.9914 43.9998 25.7037C43.9998 17.416 37.3676 10.6975 29.1864 10.6975C29.0392 10.6975 28.8925 10.6997 28.7464 10.704V40.7035Z" fill="#4A4A4A"/>
    <path fill-rule="evenodd" clip-rule="evenodd" d="M27.4267 0C27.8692 0 28.3093 0.0106159 28.7466 0.0316101V7.47193C28.3103 7.44328 27.8703 7.42872 27.4268 7.42872C16.3295 7.42872 7.33344 16.542 7.33344 27.7837C7.33344 28.4352 7.36365 29.0795 7.42273 29.7153H0.0652387C0.0219839 29.0771 0 28.4331 0 27.7838C0 12.4392 12.2794 0 27.4267 0Z" fill="#4A4A4A"/>
    <path fill-rule="evenodd" clip-rule="evenodd" d="M28.9028 51.6759C17.3311 51.7098 7.84485 42.3434 7.59829 30.6066L14.7509 30.6066C14.9552 38.2935 21.1965 44.4111 28.7927 44.3587L28.9028 51.6759Z" fill="#4A4A4A"/>
    <g clip-path="url(#clip0_4452_5231)">
        <path d="M58.8835 20.8384H57.3262V19.8931C57.3262 19.6381 57.2861 19.414 57.2059 19.221C57.1294 19.0279 57.0202 18.8658 56.8781 18.7346C56.736 18.6035 56.5666 18.5051 56.3699 18.4396C56.1768 18.374 55.9637 18.3412 55.7306 18.3412C55.6031 18.3412 55.4719 18.3521 55.3372 18.374C55.206 18.3959 55.0749 18.4286 54.9437 18.4724C54.8126 18.5124 54.6851 18.5652 54.5612 18.6308C54.441 18.6964 54.3299 18.7729 54.2279 18.8603V22.9039H52.6706V14.8932H54.2279V17.3522C54.4756 17.2247 54.7343 17.1318 55.0038 17.0735C55.2734 17.0116 55.5503 16.9806 55.8344 16.9806C56.2643 16.9806 56.665 17.048 57.0365 17.1828C57.4081 17.3139 57.7305 17.507 58.0037 17.762C58.2769 18.017 58.4919 18.3285 58.6485 18.6964C58.8052 19.0607 58.8835 19.476 58.8835 19.9422V20.8384ZM63.2822 22.9039V22.5651C63.0892 22.7253 62.8797 22.842 62.6538 22.9148C62.4316 22.9877 62.1948 23.0241 61.9434 23.0241C61.2987 23.0241 60.8051 22.8493 60.4627 22.4995C60.1239 22.1462 59.9545 21.6489 59.9545 21.0078V16.1446H58.6977V14.8932H61.4025V20.8548C61.4025 21.0041 61.4134 21.1371 61.4353 21.2537C61.4608 21.3702 61.5027 21.4704 61.5609 21.5542C61.6229 21.6343 61.7049 21.6963 61.8068 21.74C61.9125 21.7801 62.0455 21.8001 62.2058 21.8001C62.4535 21.8001 62.6611 21.76 62.8287 21.6799C62.9963 21.5961 63.1183 21.5068 63.1948 21.4121V17.1008H64.6428V22.9039H63.2822ZM67.9323 19.7892C68.0926 19.8293 68.2493 19.8566 68.4023 19.8712C68.5589 19.8821 68.7337 19.8876 68.9268 19.8876C69.1089 19.8876 69.2729 19.873 69.4186 19.8439C69.568 19.8147 69.6955 19.7674 69.8011 19.7018C69.9068 19.6326 69.9887 19.5452 70.047 19.4395C70.1053 19.3339 70.1344 19.2046 70.1344 19.0516C70.1344 18.8876 70.1034 18.7492 70.0415 18.6363C69.9832 18.5234 69.9031 18.4305 69.8011 18.3576C69.7027 18.2847 69.5862 18.2319 69.4514 18.1991C69.3166 18.1663 69.1764 18.15 69.0306 18.15C68.7793 18.15 68.5643 18.1827 68.3859 18.2483C68.211 18.3139 68.0598 18.4104 67.9323 18.5379V19.7892ZM66.4843 22.9039H65.5444V21.6799H66.4843V17.1008H67.8449V17.4396C68.0307 17.2793 68.2529 17.1627 68.5115 17.0899C68.7702 17.017 69.0452 16.9806 69.3366 16.9806C69.6463 16.9806 69.9395 17.0207 70.2164 17.1008C70.4932 17.1773 70.7337 17.2975 70.9377 17.4615C71.1453 17.6217 71.3092 17.8276 71.4295 18.0789C71.5497 18.3303 71.6098 18.6308 71.6098 18.9805C71.6098 19.2501 71.5733 19.4869 71.5005 19.6909C71.4313 19.8949 71.3347 20.0697 71.2109 20.2155C71.087 20.3612 70.9395 20.4832 70.7682 20.5816C70.6007 20.6763 70.4168 20.7528 70.2164 20.8111C70.0197 20.8657 69.8138 20.904 69.599 20.9258C69.384 20.9477 69.1672 20.9586 68.9487 20.9586C68.792 20.9586 68.6245 20.9531 68.446 20.9422C68.2711 20.9313 68.0999 20.9131 67.9323 20.8876V21.6799H71.5224V22.9039H67.9323V25.1279H66.4843V22.9039ZM76.167 22.9039V22.5651C75.9739 22.7253 75.7644 22.842 75.5386 22.9148C75.3164 22.9877 75.0796 23.0241 74.8282 23.0241C74.1835 23.0241 73.6899 22.8493 73.3474 22.4995C73.0087 22.1462 72.8392 21.6489 72.8392 21.0078V16.1446H71.5825V14.8932H74.2872V20.8548C74.2872 21.0041 74.2982 21.1371 74.3201 21.2537C74.3456 21.3702 74.3874 21.4704 74.4457 21.5542C74.5077 21.6343 74.5896 21.6963 74.6916 21.74C74.7972 21.7801 74.9303 21.8001 75.0905 21.8001C75.3382 21.8001 75.5459 21.76 75.7135 21.6799C75.881 21.5961 76.003 21.5068 76.0796 21.4121V17.1008H77.5276V22.9039H76.167ZM80.3636 17.1008V17.4396C80.5566 17.2793 80.7643 17.1627 80.9865 17.0899C81.2124 17.017 81.4509 16.9806 81.7023 16.9806C82.0229 16.9806 82.307 17.0261 82.5547 17.1172C82.8024 17.2083 83.0101 17.3394 83.1776 17.5106C83.3488 17.6819 83.4763 17.8931 83.5601 18.1445C83.6476 18.3922 83.6913 18.6764 83.6913 18.9969V22.9039H82.2433V19.1499C82.2433 19.0006 82.2305 18.8676 82.205 18.751C82.1831 18.6345 82.1413 18.5361 82.0793 18.456C82.0211 18.3722 81.9391 18.3102 81.8334 18.2702C81.7315 18.2265 81.6003 18.2046 81.44 18.2046C81.1923 18.2046 80.9847 18.2465 80.8171 18.3303C80.6495 18.4104 80.5275 18.4979 80.451 18.5926V22.9039H79.0029V17.1008H80.3636ZM86.5273 17.1008V17.4396C86.7203 17.2793 86.928 17.1627 87.1502 17.0899C87.376 17.017 87.6146 16.9806 87.866 16.9806C88.1866 16.9806 88.4707 17.0261 88.7184 17.1172C88.9661 17.2083 89.1738 17.3394 89.3414 17.5106C89.5126 17.6819 89.6401 17.8931 89.7239 18.1445C89.8112 18.3922 89.855 18.6764 89.855 18.9969V22.9039H88.4069V19.1499C88.4069 19.0006 88.3942 18.8676 88.3687 18.751C88.3469 18.6345 88.305 18.5361 88.243 18.456C88.1848 18.3722 88.1028 18.3102 87.9971 18.2702C87.8952 18.2265 87.764 18.2046 87.6037 18.2046C87.356 18.2046 87.1483 18.2465 86.9808 18.3303C86.8132 18.4104 86.6912 18.4979 86.6147 18.5926V25.1279H85.1667V17.1008H86.5273ZM92.6909 17.1008V17.4396C92.884 17.2793 93.0917 17.1627 93.3139 17.0899C93.5397 17.017 93.7783 16.9806 94.0297 16.9806C94.3503 16.9806 94.6344 17.0261 94.8821 17.1172C95.1299 17.2083 95.3375 17.3394 95.5051 17.5106C95.6763 17.6819 95.8038 17.8931 95.8876 18.1445C95.975 18.3922 96.0187 18.6764 96.0187 18.9969V22.9039H94.5706V19.1499C94.5706 19.0006 94.558 18.8676 94.5324 18.751C94.5106 18.6345 94.4686 18.5361 94.4067 18.456C94.3485 18.3722 94.2665 18.3102 94.1608 18.2702C94.0588 18.2265 93.9277 18.2046 93.7674 18.2046C93.5197 18.2046 93.312 18.2465 93.1445 18.3303C92.9769 18.4104 92.8549 18.4979 92.7784 18.5926V22.9039H91.3304V17.1008H92.6909ZM101.057 19.3521C101.057 19.6945 100.988 20.0224 100.849 20.3357C100.711 20.6453 100.536 20.9422 100.325 21.2263C100.117 21.5068 99.8911 21.771 99.6469 22.0187C99.4029 22.2627 99.1752 22.4904 98.9639 22.7017C98.7563 22.9093 98.5833 23.0987 98.4448 23.27C98.3064 23.4412 98.2372 23.5888 98.2372 23.7126C98.2372 23.7672 98.2554 23.8073 98.2918 23.8328C98.3319 23.862 98.3811 23.8765 98.4394 23.8765H100.8V25.1279H98.0896C97.8601 25.1279 97.6616 25.095 97.4941 25.0295C97.3301 24.9639 97.1935 24.8765 97.0842 24.7672C96.9786 24.6579 96.9003 24.5304 96.8492 24.3847C96.7983 24.2426 96.7728 24.0932 96.7728 23.9366C96.7728 23.7326 96.8128 23.5341 96.893 23.341C96.9732 23.1479 97.0788 22.9585 97.2099 22.7727C97.341 22.587 97.4904 22.403 97.658 22.2208C97.8292 22.0387 98.0023 21.8566 98.1771 21.6744C98.3519 21.4886 98.5232 21.3047 98.6907 21.1225C98.8619 20.9367 99.0131 20.7491 99.1443 20.5597C99.2754 20.3666 99.3811 20.1699 99.4612 19.9696C99.5413 19.7692 99.5814 19.5634 99.5814 19.3521C99.5814 19.0862 99.5341 18.8785 99.4393 18.7292C99.3483 18.5762 99.2371 18.4632 99.106 18.3904C98.9749 18.3139 98.8383 18.2665 98.6962 18.2483C98.5541 18.2301 98.4321 18.221 98.3301 18.221C98.1225 18.221 97.9112 18.2374 97.6962 18.2702C97.485 18.303 97.281 18.3503 97.0842 18.4122V17.1008C97.1498 17.0899 97.2282 17.0771 97.3192 17.0626C97.4139 17.048 97.5177 17.0352 97.6307 17.0243C97.7436 17.0097 97.862 16.9988 97.9859 16.9915C98.1134 16.9842 98.2409 16.9806 98.3684 16.9806C98.7654 16.9806 99.1278 17.0225 99.4557 17.1063C99.7872 17.1864 100.071 17.3194 100.308 17.5052C100.545 17.691 100.729 17.935 100.86 18.2374C100.991 18.5397 101.057 18.9113 101.057 19.3521ZM105.51 22.9039V22.5651C105.317 22.7253 105.108 22.842 104.882 22.9148C104.66 22.9877 104.423 23.0241 104.171 23.0241C103.527 23.0241 103.033 22.8493 102.691 22.4995C102.352 22.1462 102.182 21.6489 102.182 21.0078V17.1008H103.63V20.8548C103.63 21.0041 103.641 21.1371 103.663 21.2537C103.689 21.3702 103.731 21.4704 103.789 21.5542C103.851 21.6343 103.933 21.6963 104.035 21.74C104.14 21.7801 104.273 21.8001 104.434 21.8001C104.681 21.8001 104.889 21.76 105.057 21.6799C105.224 21.5961 105.346 21.5068 105.423 21.4121V14.8932H108.128V16.1446H106.871V22.9039H105.51ZM111.455 17.1008H112.903V20.8548C112.903 20.9713 112.909 21.0861 112.92 21.199C112.934 21.312 112.967 21.414 113.018 21.505C113.069 21.5925 113.146 21.6635 113.248 21.7181C113.353 21.7728 113.497 21.8001 113.679 21.8001C113.759 21.8001 113.841 21.791 113.925 21.7728C114.013 21.7509 114.096 21.7218 114.176 21.6853C114.257 21.6489 114.329 21.6088 114.395 21.5651C114.461 21.5178 114.515 21.4668 114.559 21.4121V17.1008H116.007V22.9039H114.646V22.5651C114.482 22.6963 114.293 22.8055 114.078 22.893C113.863 22.9803 113.625 23.0241 113.362 23.0241C113.042 23.0241 112.769 22.9731 112.543 22.8711C112.317 22.7691 112.127 22.6343 111.974 22.4668C111.756 22.6343 111.517 22.7691 111.259 22.8711C111 22.9731 110.703 23.0241 110.368 23.0241C110.018 23.0241 109.716 22.9749 109.461 22.8766C109.209 22.7782 109 22.638 108.832 22.4558C108.668 22.2737 108.547 22.0551 108.466 21.8001C108.39 21.5415 108.352 21.2537 108.352 20.9367V17.1008H109.8V20.8548C109.8 20.9968 109.811 21.1262 109.832 21.2427C109.854 21.3557 109.891 21.454 109.942 21.5378C109.996 21.6216 110.067 21.6872 110.155 21.7345C110.246 21.7782 110.361 21.8001 110.499 21.8001C110.732 21.8001 110.933 21.7618 111.1 21.6853C111.268 21.6052 111.401 21.5141 111.499 21.4121C111.484 21.3283 111.474 21.2464 111.466 21.1662C111.459 21.0861 111.455 21.006 111.455 20.9258V17.1008ZM120.81 22.9039V22.5651C120.617 22.7253 120.408 22.842 120.182 22.9148C119.96 22.9877 119.723 23.0241 119.471 23.0241C118.827 23.0241 118.333 22.8493 117.991 22.4995C117.652 22.1462 117.482 21.6489 117.482 21.0078V16.1446H116.226V14.8932H118.93V20.8548C118.93 21.0041 118.941 21.1371 118.963 21.2537C118.989 21.3702 119.031 21.4704 119.089 21.5542C119.151 21.6343 119.233 21.6963 119.335 21.74C119.44 21.7801 119.573 21.8001 119.734 21.8001C119.981 21.8001 120.189 21.76 120.357 21.6799C120.524 21.5961 120.646 21.5068 120.723 21.4121V17.1008H122.171V22.9039H120.81ZM58.8999 31.5901H57.3425V30.8962C57.3425 30.6448 57.3043 30.4226 57.2278 30.2295C57.1513 30.0365 57.0438 29.8744 56.9054 29.7432C56.767 29.612 56.6012 29.5118 56.4082 29.4427C56.2187 29.3735 56.0111 29.3388 55.7852 29.3388C55.5594 29.3388 55.3499 29.3735 55.1568 29.4427C54.9674 29.5118 54.8035 29.612 54.6651 29.7432C54.5266 29.8744 54.4192 30.0365 54.3427 30.2295C54.2662 30.4226 54.2279 30.6448 54.2279 30.8962V32.4644H58.9709V33.9015H54.2279V36.1091H52.6706V30.9508C52.6706 30.4809 52.7507 30.0619 52.911 29.694C53.0713 29.3224 53.2899 29.0109 53.5667 28.7596C53.8472 28.5046 54.1769 28.3115 54.5558 28.1804C54.9346 28.0456 55.3444 27.9783 55.7852 27.9783C56.226 27.9783 56.6358 28.0456 57.0147 28.1804C57.3936 28.3115 57.7214 28.5046 57.9983 28.7596C58.2788 29.0109 58.4992 29.3224 58.6594 29.694C58.8197 30.0619 58.8999 30.4809 58.8999 30.9508V31.5901ZM63.5663 30.306H65.0144V34.06C65.0144 34.1766 65.0199 34.2913 65.0308 34.4042C65.0453 34.5171 65.0782 34.6191 65.1292 34.7102C65.1801 34.7977 65.2567 34.8687 65.3587 34.9233C65.4643 34.978 65.6081 35.0053 65.7903 35.0053C65.8705 35.0053 65.9525 34.9962 66.0362 34.978C66.1237 34.9561 66.2075 34.9269 66.2876 34.8905C66.3677 34.8541 66.4406 34.8141 66.5062 34.7703C66.5717 34.723 66.6264 34.6719 66.6701 34.6173V30.306H68.1181V36.1091H66.7575V35.7703C66.5935 35.9014 66.4041 36.0107 66.1893 36.0982C65.9743 36.1855 65.7356 36.2293 65.4734 36.2293C65.1528 36.2293 64.8796 36.1783 64.6537 36.0763C64.4279 35.9743 64.2385 35.8395 64.0854 35.672C63.8669 35.8395 63.6283 35.9743 63.3697 36.0763C63.111 36.1783 62.8141 36.2293 62.479 36.2293C62.1293 36.2293 61.8269 36.1801 61.5719 36.0818C61.3206 35.9834 61.1111 35.8432 60.9435 35.661C60.7796 35.4789 60.6575 35.2603 60.5774 35.0053C60.5009 34.7466 60.4627 34.4589 60.4627 34.1419V30.306H61.9107V34.06C61.9107 34.202 61.9216 34.3314 61.9434 34.4479C61.9653 34.5609 62.0018 34.6592 62.0527 34.743C62.1074 34.8267 62.1785 34.8923 62.2659 34.9397C62.3569 34.9834 62.4717 35.0053 62.6101 35.0053C62.8433 35.0053 63.0436 34.967 63.2112 34.8905C63.3788 34.8104 63.5117 34.7193 63.6101 34.6173C63.5955 34.5335 63.5845 34.4516 63.5773 34.3714C63.57 34.2913 63.5663 34.2112 63.5663 34.131V30.306ZM72.9212 36.1091V35.7703C72.7281 35.9305 72.5186 36.0471 72.2928 36.12C72.0706 36.1929 71.8338 36.2293 71.5825 36.2293C70.9377 36.2293 70.4441 36.0545 70.1016 35.7047C69.7629 35.3514 69.5934 34.8541 69.5934 34.213V29.3497H68.3367V28.0984H71.0415V34.06C71.0415 34.2093 71.0524 34.3423 71.0743 34.4589C71.0998 34.5754 71.1416 34.6756 71.2 34.7594C71.2619 34.8395 71.3438 34.9014 71.4458 34.9451C71.5515 34.9853 71.6845 35.0053 71.8447 35.0053C72.0924 35.0053 72.3001 34.9652 72.4677 34.8851C72.6352 34.8013 72.7573 34.712 72.8338 34.6173V30.306H74.2818V36.1091H72.9212ZM78.8663 30.306H80.3144V34.06C80.3144 34.1766 80.3198 34.2913 80.3307 34.4042C80.3454 34.5171 80.3781 34.6191 80.4291 34.7102C80.4801 34.7977 80.5566 34.8687 80.6586 34.9233C80.7643 34.978 80.9082 35.0053 81.0903 35.0053C81.1704 35.0053 81.2524 34.9962 81.3362 34.978C81.4236 34.9561 81.5074 34.9269 81.5875 34.8905C81.6677 34.8541 81.7406 34.8141 81.8061 34.7703C81.8717 34.723 81.9263 34.6719 81.97 34.6173V30.306H83.4181V36.1091H82.0575V35.7703C81.8936 35.9014 81.7041 36.0107 81.4892 36.0982C81.2743 36.1855 81.0357 36.2293 80.7734 36.2293C80.4528 36.2293 80.1796 36.1783 79.9538 36.0763C79.7279 35.9743 79.5384 35.8395 79.3854 35.672C79.1669 35.8395 78.9282 35.9743 78.6696 36.0763C78.411 36.1783 78.1141 36.2293 77.7789 36.2293C77.4293 36.2293 77.1269 36.1801 76.8719 36.0818C76.6205 35.9834 76.411 35.8432 76.2435 35.661C76.0796 35.4789 75.9575 35.2603 75.8774 35.0053C75.8009 34.7466 75.7626 34.4589 75.7626 34.1419V30.306H77.2107V34.06C77.2107 34.202 77.2216 34.3314 77.2434 34.4479C77.2653 34.5609 77.3018 34.6592 77.3527 34.743C77.4074 34.8267 77.4784 34.8923 77.5659 34.9397C77.6569 34.9834 77.7717 35.0053 77.9101 35.0053C78.1432 35.0053 78.3436 34.967 78.5112 34.8905C78.6787 34.8104 78.8117 34.7193 78.91 34.6173C78.8955 34.5335 78.8846 34.4516 78.8773 34.3714C78.87 34.2913 78.8663 34.2112 78.8663 34.131V30.306ZM89.4343 32.8524V36.1091H88.0736V35.7703C87.8769 35.9342 87.6675 36.0508 87.4453 36.12C87.223 36.1929 86.9862 36.2293 86.7349 36.2293C86.4106 36.2293 86.1138 36.182 85.8442 36.0872C85.5783 35.9889 85.347 35.8413 85.1503 35.6446C84.9572 35.4479 84.806 35.202 84.6967 34.9069C84.5911 34.6082 84.5383 34.2585 84.5383 33.8578C84.5383 33.4899 84.5911 33.1328 84.6967 32.7868C84.806 32.4407 84.9608 32.1147 85.1612 31.8087C85.3615 31.499 85.602 31.2113 85.8824 30.9453C86.163 30.6794 86.4762 30.4426 86.8223 30.235C86.56 30.1439 86.3214 30.0383 86.1065 29.9181C85.8952 29.7978 85.7131 29.654 85.5601 29.4863C85.4071 29.3152 85.2869 29.1166 85.1994 28.8908C85.1156 28.6649 85.0719 28.4008 85.0683 28.0984H86.5163C86.5273 28.2515 86.5619 28.3807 86.6201 28.4864C86.6821 28.5884 86.7732 28.6795 86.8933 28.7596C87.0135 28.8361 87.1648 28.909 87.3469 28.9782C87.5291 29.0438 87.7458 29.1166 87.9971 29.1968C88.223 29.2696 88.3887 29.3807 88.4944 29.53C88.6037 29.6758 88.6583 29.827 88.6583 29.9837C88.6583 30.1075 88.6437 30.2168 88.6146 30.3115C88.5891 30.4026 88.5526 30.4827 88.5053 30.5519C88.458 30.6211 88.3997 30.6812 88.3305 30.7322C88.2649 30.7795 88.192 30.8215 88.1119 30.8579L88.0627 30.8852C88.5035 31.0528 88.8423 31.306 89.0791 31.6447C89.3159 31.9799 89.4343 32.3824 89.4343 32.8524ZM86.9972 35.0053C87.2485 35.0053 87.4562 34.9652 87.6201 34.8851C87.7876 34.8013 87.9097 34.712 87.9862 34.6173V32.9671C87.9862 32.6756 87.9043 32.4152 87.7403 32.1857C87.58 31.9562 87.3141 31.7832 86.9425 31.6666C86.8223 31.7759 86.7058 31.9034 86.5928 32.0491C86.4835 32.1948 86.3852 32.3551 86.2978 32.5299C86.214 32.7012 86.1448 32.8833 86.0901 33.0764C86.0391 33.2658 86.0136 33.4607 86.0136 33.6611C86.0136 33.8396 86.03 34.0108 86.0628 34.1747C86.0956 34.335 86.1502 34.4771 86.2267 34.6009C86.3032 34.7248 86.4034 34.8232 86.5273 34.896C86.6548 34.9689 86.8114 35.0053 86.9972 35.0053ZM94.2537 36.1091V35.7703C94.0606 35.9305 93.8512 36.0471 93.6254 36.12C93.4031 36.1929 93.1663 36.2293 92.915 36.2293C92.2702 36.2293 91.7766 36.0545 91.4341 35.7047C91.0954 35.3514 90.926 34.8541 90.926 34.213V28.0984H92.374V34.06C92.374 34.2093 92.385 34.3423 92.4069 34.4589C92.4323 34.5754 92.4742 34.6756 92.5325 34.7594C92.5944 34.8395 92.6764 34.9014 92.7784 34.9451C92.884 34.9853 93.017 35.0053 93.1773 35.0053C93.425 35.0053 93.6326 34.9652 93.8002 34.8851C93.9678 34.8013 94.0898 34.712 94.1663 34.6173V30.306H95.6144V34.8578H97.8274V36.1091H94.2537Z" fill="#4A4A4A"/>
    </g>
    <defs>
        <clipPath id="clip0_4452_5231">
            <rect width="69.607" height="21.4118" fill="white" transform="translate(52.597 14.8465)"/>
        </clipPath>
    </defs>
</svg>
